<svg xmlns="http://www.w3.org/2000/svg" width="653" height="634" viewBox="0 0 653 634">
  <g id="Ellipse_1" data-name="Ellipse 1" fill="#48f" stroke="#707070" stroke-width="1">
    <ellipse cx="326.5" cy="317" rx="326.5" ry="317" stroke="none"/>
    <ellipse cx="326.5" cy="317" rx="326" ry="316.5" fill="none"/>
  </g>
  <g id="Polygon_1" data-name="Polygon 1" transform="translate(527 131) rotate(90)">
    <path d="M 370.5819396972656 298.6968383789062 L 186.6531372070312 239.5240478515625 L 186.5 239.4747772216797 L 186.3468627929688 239.5240478515625 L 2.418060302734375 298.6968383789062 L 149.5133666992188 180.3896331787109 L 149.6531829833984 180.2771759033203 L 149.6895904541016 180.1014556884766 L 186.5 2.464091539382935 L 223.3104095458984 180.1014556884766 L 223.3468170166016 180.2771759033203 L 223.4866333007812 180.3896331787109 L 370.5819396972656 298.6968383789062 Z" stroke="none"/>
    <path d="M 186.5 4.928253173828125 L 150.1063995361328 180.5542907714844 L 149.8267517089844 180.7792510986328 L 4.836181640625 297.3936462402344 L 186.5 238.9494934082031 L 186.8062438964844 239.0480499267578 L 368.163818359375 297.3936462402344 L 222.8936004638672 180.5542907714844 L 222.82080078125 180.2029113769531 L 186.5 4.928253173828125 M 186.5 0 L 223.8000030517578 180 L 373 300 L 186.5 240 L 0 300 L 149.1999969482422 180 L 186.5 0 Z" stroke="none" fill="#707070"/>
  </g>
</svg>
